<svg width="1125" height="211" viewBox="0 0 1125 211" fill="none" xmlns="http://www.w3.org/2000/svg">
<path d="M1.10984 0V60.5C0.109842 71.8333 5.50984 94.5 35.1098 94.5C64.7098 94.5 398.11 94.5 561.109 94.5C586.609 94.5 586.609 90.5 586.609 69C586.609 47.5 586.609 43.5 612.109 43.5H750.609C844.109 43.5 831.609 30.5 831.609 124.5C831.609 204.1 831.609 191.333 831.609 175C830.776 186.333 836.409 209 865.609 209C894.809 209 1026.78 209 1089.11 209C1100.44 210.833 1123.11 206.6 1123.11 175C1123.11 143.4 1123.11 45.1667 1123.11 0" stroke="white" stroke-width="2" stroke-dasharray="4 4"/>
</svg>
