<svg width="32" height="33" viewBox="0 0 32 33" fill="none" xmlns="http://www.w3.org/2000/svg">
<path d="M31.3359 9.48732C31.2632 7.77399 30.9926 6.59471 30.6066 5.57344C30.201 4.50076 29.5821 3.52672 28.7894 2.71352C27.9968 1.90031 27.0478 1.26578 26.0031 0.850446C25.006 0.453937 23.8665 0.175942 22.1929 0.101322C20.5193 0.0267026 19.9766 0.000366211 15.7107 0.000366211C11.4447 0.000366211 10.912 0.0193869 9.23696 0.0940067C7.56191 0.168627 6.41958 0.448085 5.42538 0.844594C4.37465 1.24951 3.4235 1.88689 2.63933 2.71155C1.84272 3.51571 1.22511 4.48756 0.828976 5.56027C0.441551 6.58446 0.172347 7.75497 0.0982807 9.47562C0.0242141 11.1963 0 11.7581 0 16.1387C0 20.5193 0.0185166 21.0695 0.0925832 22.7901C0.16665 24.5108 0.435853 25.6842 0.823279 26.7055C1.22744 27.7777 1.845 28.7514 2.63647 29.5644C3.42794 30.3775 4.37589 31.0118 5.41968 31.427C6.41673 31.825 7.55622 32.1015 9.23126 32.1776C10.9063 32.2537 11.4404 32.2727 15.705 32.2727C19.9695 32.2727 20.505 32.2537 22.1801 32.1776C23.8551 32.1015 24.9975 31.825 25.9917 31.427C27.0357 31.0123 27.9839 30.3781 28.7754 29.565C29.567 28.7519 30.1844 27.778 30.5881 26.7055C30.9741 25.6813 31.2447 24.5108 31.3188 22.7901C31.3928 21.0695 31.4099 20.5208 31.4099 16.1387C31.4099 11.7566 31.4042 11.2094 31.3359 9.48732ZM15.7178 29.3728C11.5259 29.3728 11.0174 29.3537 9.37085 29.2777C7.83681 29.2074 7.00926 28.9426 6.45661 28.7231C5.77476 28.4659 5.15798 28.0543 4.65195 27.519C4.13234 26.9979 3.73194 26.3647 3.4797 25.6652C3.26463 25.0975 3.00682 24.2401 2.93987 22.6701C2.86581 20.9685 2.84729 20.4579 2.84729 16.1519C2.84729 11.8459 2.86581 11.3236 2.93987 9.63363C3.00682 8.05638 3.26463 7.2063 3.4797 6.6386C3.73046 5.93657 4.13381 5.30256 4.65907 4.78481C5.16558 4.25077 5.78159 3.83941 6.46231 3.58065C7.01496 3.35972 7.84963 3.09489 9.37797 3.02613C11.0345 2.95151 11.5373 2.92663 15.7235 2.92663C19.9097 2.92663 20.4239 2.94565 22.069 3.02027C23.6045 3.08904 24.432 3.35387 24.9847 3.5748C25.6665 3.83208 26.2833 4.24362 26.7893 4.77896C27.3089 5.30005 27.7093 5.93324 27.9616 6.63275C28.1766 7.20044 28.4344 8.05784 28.5014 9.62778C28.5755 11.3294 28.594 11.84 28.594 16.146C28.594 20.452 28.5755 20.9554 28.5014 22.6584C28.4344 24.2342 28.1766 25.0858 27.9616 25.6535C27.6994 26.3493 27.2987 26.9812 26.7851 27.5088C26.2715 28.0364 25.6563 28.448 24.979 28.7173C24.4263 28.9367 23.5916 29.2016 22.0633 29.2718C21.5633 29.2938 21.1688 29.3113 20.7472 29.3259V19.4834H24.5459L25.1727 15.5681H20.7472V12.8525C20.742 12.602 20.786 12.353 20.8767 12.1204C20.9674 11.8878 21.1028 11.6764 21.2749 11.4988C21.447 11.3212 21.6522 11.1811 21.8782 11.0869C22.1042 10.9927 22.3464 10.9463 22.5903 10.9505H25.1114V7.04243H22.5903C21.8468 7.04262 21.1107 7.19338 20.4239 7.48609C19.7372 7.7788 19.1134 8.20772 18.5882 8.7483C18.063 9.28889 17.6467 9.93053 17.3632 10.6365C17.0796 11.3425 16.9343 12.099 16.9356 12.8628V15.5681H13.2465V19.4834H16.9356V29.3713L15.7178 29.3728Z" fill="#EA2A00"/>
</svg>
