<svg width="33" height="33" viewBox="0 0 33 33" fill="none" xmlns="http://www.w3.org/2000/svg">
<path d="M32.3163 9.48842C32.2437 7.77362 31.9731 6.59434 31.5871 5.57307C31.1817 4.50043 30.5628 3.52648 29.7702 2.71348C28.9775 1.90048 28.0284 1.26632 26.9835 0.851543C25.9865 0.453571 24.847 0.177039 23.1734 0.100956C21.4998 0.0248733 20.9571 0 16.6911 0C12.4252 0 11.8925 0.0190207 10.2174 0.0951036C8.54238 0.171187 7.40005 0.447719 6.40585 0.844228C5.35512 1.24915 4.40397 1.88653 3.6198 2.71119C2.82216 3.51732 2.20447 4.49179 1.80944 5.56722C1.42202 6.59141 1.15282 7.76192 1.07875 9.4811C1.00468 11.2003 0.980469 11.7577 0.980469 16.1384C0.980469 20.519 0.998985 21.0691 1.07305 22.7898C1.14712 24.5104 1.41632 25.6838 1.80232 26.7051C2.2071 27.7772 2.82505 28.7508 3.61671 29.5637C4.40837 30.3767 5.35636 31.0112 6.40015 31.4266C7.3972 31.8246 8.53668 32.1011 10.2103 32.1772C11.8839 32.2533 12.4209 32.2723 16.6854 32.2723C20.95 32.2723 21.4855 32.2533 23.1606 32.1772C24.8356 32.1011 25.9779 31.8246 26.9721 31.4266C28.0162 31.0119 28.9644 30.3777 29.7559 29.5647C30.5474 28.7516 31.1648 27.7776 31.5685 26.7051C31.9545 25.6809 32.2252 24.5104 32.2992 22.7898C32.3733 21.0691 32.3904 20.5204 32.3904 16.1384C32.3904 11.7563 32.3847 11.2091 32.3163 9.48842ZM29.4819 22.6639C29.4149 24.2397 29.1571 25.0913 28.942 25.659C28.6801 26.3549 28.2795 26.987 27.7659 27.5146C27.2522 28.0422 26.6369 28.4537 25.9594 28.7228C25.4068 28.9437 24.5721 29.2085 23.0438 29.2773C21.3872 29.3534 20.8901 29.3724 16.6983 29.3724C12.5064 29.3724 11.9979 29.3534 10.3513 29.2773C8.81728 29.2085 7.98973 28.9437 7.43708 28.7228C6.75522 28.4655 6.13844 28.0539 5.63242 27.5186C5.1128 26.9975 4.7124 26.3643 4.46017 25.6648C4.2451 25.0971 3.98729 24.2397 3.92034 22.6698C3.84628 20.9682 3.82776 20.4575 3.82776 16.1515C3.82776 11.8455 3.84628 11.3232 3.92034 9.63327C3.98729 8.05747 4.2451 7.20593 4.46017 6.63823C4.71092 5.93656 5.11372 5.30264 5.63812 4.78444C6.1454 4.25068 6.76181 3.83938 7.44278 3.58029C7.99543 3.36082 8.8301 3.09599 10.3584 3.02576C12.015 2.95114 12.5178 2.92627 16.7039 2.92627C20.8901 2.92627 21.4043 2.94529 23.0495 3.01991C24.5849 3.09014 25.4125 3.35496 25.9651 3.57443C26.647 3.83171 27.2638 4.24326 27.7698 4.77859C28.2894 5.29969 28.6898 5.93288 28.942 6.63238C29.1571 7.20008 29.4149 8.05747 29.4819 9.62742C29.5559 11.329 29.5744 11.8397 29.5744 16.1457C29.5744 20.4517 29.5559 20.9623 29.4819 22.6639Z" fill="#EA2A00"/>
<path d="M16.6936 7.84802C15.0977 7.84918 13.5379 8.33638 12.2115 9.24802C10.8851 10.1597 9.85156 11.4548 9.2416 12.9698C8.63164 14.4847 8.47263 16.1514 8.78468 17.7592C9.09672 19.3669 9.8658 20.8436 10.9947 22.0024C12.1236 23.1612 13.5616 23.9502 15.127 24.2696C16.6923 24.589 18.3147 24.4245 19.7891 23.7968C21.2634 23.1692 22.5235 22.1066 23.41 20.7434C24.2966 19.3802 24.7697 17.7776 24.7697 16.1382C24.7694 15.0492 24.5602 13.9708 24.1541 12.9648C23.748 11.9588 23.1531 11.0448 22.4031 10.275C21.6532 9.50514 20.763 8.8946 19.7833 8.47818C18.8037 8.06177 17.7538 7.84764 16.6936 7.84802ZM16.6936 21.5168C15.6581 21.5168 14.6457 21.2013 13.7847 20.6103C12.9236 20.0193 12.2525 19.1793 11.8562 18.1965C11.46 17.2137 11.3563 16.1323 11.5583 15.0889C11.7603 14.0456 12.259 13.0872 12.9913 12.335C13.7235 11.5828 14.6565 11.0706 15.6721 10.863C16.6878 10.6555 17.7406 10.762 18.6973 11.1691C19.6541 11.5762 20.4718 12.2656 21.0472 13.1501C21.6225 14.0346 21.9296 15.0745 21.9296 16.1382C21.9296 17.5647 21.3779 18.9328 20.396 19.9414C19.4141 20.9501 18.0823 21.5168 16.6936 21.5168Z" fill="#EA2A00"/>
<path d="M26.9642 7.52098C26.9644 7.90403 26.8541 8.27856 26.6472 8.59718C26.4402 8.9158 26.1459 9.16419 25.8015 9.31091C25.4571 9.45764 25.0781 9.4961 24.7125 9.42144C24.3468 9.34678 24.0109 9.16235 23.7472 8.89149C23.4836 8.62063 23.3041 8.27551 23.2315 7.8998C23.1588 7.52409 23.1962 7.13468 23.339 6.78084C23.4818 6.42699 23.7236 6.12463 24.0337 5.91199C24.3438 5.69936 24.7083 5.58601 25.0812 5.5863C25.5806 5.5863 26.0595 5.79013 26.4126 6.15296C26.7658 6.51578 26.9642 7.00787 26.9642 7.52098Z" fill="#EA2A00"/>
</svg>
