<svg width="32" height="33" viewBox="0 0 32 33" fill="none" xmlns="http://www.w3.org/2000/svg">
<path d="M31.9335 9.48708C31.8595 7.77229 31.5903 6.59446 31.2029 5.5732C30.8087 4.49378 30.1888 3.51635 29.3868 2.70984C28.5999 1.89039 27.6494 1.25594 26.6007 0.850203C25.6037 0.453693 24.4642 0.175698 22.7892 0.101078C21.1141 0.0264585 20.5743 0.00012207 16.3083 0.00012207C12.0424 0.00012207 11.5097 0.0191428 9.8332 0.0937626C8.15673 0.168382 7.01724 0.447841 6.02304 0.84435C4.97252 1.24985 4.02111 1.88657 3.23557 2.70984C2.4392 3.51478 1.82165 4.48705 1.42521 5.56003C1.03921 6.58422 0.768579 7.75473 0.695937 9.47537C0.623295 11.196 0.597656 11.7579 0.597656 16.1385C0.597656 20.5191 0.616173 21.0692 0.688815 22.7899C0.761458 24.5105 1.03351 25.684 1.41951 26.7052C1.81621 27.7829 2.43581 28.7593 3.23557 29.5671C4.01918 30.3852 4.96568 31.0195 6.01022 31.4268C7.00727 31.8233 8.14676 32.1013 9.8218 32.1773C11.4969 32.2534 12.031 32.271 16.2969 32.271C20.5629 32.271 21.0956 32.252 22.7721 32.1773C24.4485 32.1027 25.588 31.8233 26.5822 31.4268C27.6266 31.0123 28.5751 30.3782 29.3669 29.5651C30.1587 28.752 30.7763 27.7779 31.1801 26.7052C31.5661 25.681 31.8367 24.5105 31.9093 22.7899C31.982 21.0692 32.0019 20.5206 32.0019 16.1385C32.0019 11.7564 32.0019 11.2092 31.9335 9.48708ZM29.0991 22.6641C29.0307 24.2398 28.7729 25.0914 28.5592 25.6576C28.2972 26.3538 27.8964 26.9859 27.3825 27.5136C26.8686 28.0412 26.253 28.4526 25.5752 28.7214C25.024 28.9424 24.1893 29.2072 22.661 29.2774C21.003 29.352 20.5059 29.3711 16.3155 29.3711C12.125 29.3711 11.6151 29.352 9.96851 29.2774C8.43448 29.2072 7.6055 28.9424 7.05285 28.7214C6.37088 28.4652 5.75435 28.0535 5.24961 27.5173C4.72924 26.9974 4.32871 26.3645 4.07736 25.6649C3.86229 25.0972 3.60448 24.2399 3.53753 22.6699C3.46347 20.9683 3.44495 20.4577 3.44495 16.1516C3.44495 11.8456 3.46347 11.3233 3.53753 9.63193C3.60448 8.05613 3.86229 7.20605 4.07736 6.63836C4.26464 6.11285 4.53775 5.62399 4.88498 5.19278C5.00057 5.04941 5.12423 4.91311 5.25531 4.78457C5.76259 4.25081 6.379 3.83951 7.05997 3.58041C7.61262 3.35948 8.4473 3.09465 9.97563 3.02588C11.6322 2.9498 12.135 2.92639 16.3212 2.92639C20.5073 2.92639 21.0215 2.94541 22.6667 3.02149C24.2007 3.09026 25.0297 3.35509 25.5823 3.57602C26.2637 3.83349 26.88 4.24502 27.3856 4.78018C27.8192 5.21384 28.1707 5.7263 28.4225 6.29159C28.4724 6.40279 28.5179 6.51692 28.5649 6.63251C28.7786 7.2002 29.0364 8.0576 29.1048 9.62608C29.1774 11.3292 29.1959 11.8398 29.1959 16.1458C29.1959 20.4518 29.1717 20.961 29.0991 22.6641Z" fill="#EA2A00"/>
<path d="M10.6352 6.22144C10.2611 6.22086 9.89538 6.33428 9.58414 6.54736C9.27291 6.76043 9.0302 7.06357 8.88675 7.41841C8.74329 7.77324 8.70554 8.16383 8.77826 8.54072C8.85099 8.91761 9.03092 9.26386 9.29529 9.53565C9.55966 9.80744 9.89657 9.99255 10.2634 10.0675C10.6302 10.1425 11.0104 10.104 11.356 9.95695C11.7015 9.80984 11.9967 9.56074 12.2044 9.24117C12.412 8.9216 12.5227 8.54593 12.5224 8.1617C12.5226 7.90697 12.4739 7.6547 12.3792 7.41931C12.2844 7.18391 12.1454 6.97001 11.9702 6.78982C11.7949 6.60963 11.5868 6.46669 11.3577 6.36916C11.1287 6.27163 10.8831 6.22144 10.6352 6.22144Z" fill="#EA2A00"/>
<path d="M12.2052 11.5709H8.98047V22.2695H12.2052V11.5709Z" fill="#EA2A00"/>
<path d="M20.4204 11.38C18.8536 11.38 17.7981 12.1877 17.368 13.026V11.5629H14.2344V22.2688H17.368V16.9561C17.368 15.5661 17.7127 14.2185 19.3905 14.2185C21.0471 14.2185 21.0998 15.809 21.0998 17.0453V22.2688H24.2804V16.3869C24.2775 13.5103 23.6864 11.38 20.4204 11.38Z" fill="#EA2A00"/>
</svg>
